<svg width="24" height="24" viewBox="0 0 24 24" fill="none" xmlns="http://www.w3.org/2000/svg">
<path d="M20.2949 14.2041L12.7949 6.70414C12.6904 6.59926 12.5662 6.51605 12.4295 6.45927C12.2927 6.40248 12.1461 6.37325 11.998 6.37325C11.85 6.37325 11.7034 6.40248 11.5666 6.45927C11.4299 6.51605 11.3057 6.59926 11.2012 6.70414L3.70117 14.2041C3.48983 14.4155 3.37109 14.7021 3.37109 15.001C3.37109 15.2999 3.48983 15.5865 3.70117 15.7979C3.91251 16.0092 4.19916 16.128 4.49805 16.128C4.79693 16.128 5.08358 16.0092 5.29492 15.7979L11.999 9.09383L18.703 15.7988C18.9144 16.0102 19.201 16.1289 19.4999 16.1289C19.7988 16.1289 20.0854 16.0102 20.2968 15.7988C20.5081 15.5875 20.6269 15.3008 20.6269 15.002C20.6269 14.7031 20.5081 14.4164 20.2968 14.2051L20.2949 14.2041Z" fill="#003986"/>
</svg>
