<svg width="43" height="44" viewBox="0 0 43 44" fill="none" xmlns="http://www.w3.org/2000/svg">
<path fill-rule="evenodd" clip-rule="evenodd" d="M38.8888 0C40.0147 0 40.5552 0.00125984 40.9897 0.14566C41.8752 0.44009 42.5699 1.15079 42.8577 2.05694C42.9989 2.50159 43 3.05466 43 4.20656V27.8798C43 29.0317 42.9986 29.5847 42.8577 30.0294C42.5699 30.9356 41.8752 31.6464 40.9897 31.9405C40.5552 32.085 40.0147 32.0865 38.8888 32.0865H28.3526V39.7932C28.3526 40.9453 28.3512 41.4984 28.21 41.9429C27.9223 42.849 27.2278 43.5599 26.3422 43.8544C25.9077 43.9985 25.3673 44 24.2417 44H4.11096C2.98524 44 2.44473 43.9989 2.01019 43.8544C1.12464 43.5599 0.430088 42.849 0.142349 41.9429C0.0012312 41.4984 0 40.9453 0 39.7932V19.1945C0 18.0427 0.0012312 17.4898 0.142349 17.0451C0.430088 16.139 1.12464 15.4283 2.01019 15.1338C2.44473 14.9894 2.98524 14.988 4.11096 14.988H11.6429V4.20656C11.6429 3.05466 11.6441 2.50159 11.7852 2.05694C12.0729 1.15079 12.7675 0.44009 13.653 0.14566C14.0876 0.0012228 14.6281 0 15.7538 0H38.8888ZM18.608 32.0865C18.2941 32.0865 18.0528 32.0865 17.8601 32.1024C17.6664 32.1187 17.5131 32.152 17.3769 32.2228C17.1471 32.3428 16.9602 32.534 16.843 32.7692C16.7736 32.9085 16.7412 33.0655 16.7254 33.2637C16.7097 33.4608 16.7098 33.7079 16.7098 34.0291V39.1786C16.7098 39.4998 16.7097 39.7469 16.7254 39.944C16.7412 40.1422 16.7737 40.2989 16.843 40.4382C16.9602 40.6734 17.1471 40.8649 17.3769 40.9849C17.5131 41.0557 17.6664 41.089 17.8601 41.1053C18.0528 41.1213 18.2941 41.1213 18.608 41.1213H23.6408C23.9547 41.1213 24.196 41.1213 24.3887 41.1053C24.5825 41.089 24.7357 41.0557 24.8719 40.9849C25.1018 40.8649 25.2886 40.6734 25.4058 40.4382C25.4752 40.2989 25.5075 40.1422 25.5234 39.944C25.5392 39.7469 25.539 39.4998 25.539 39.1786V34.0291C25.539 33.7079 25.5392 33.4608 25.5234 33.2637C25.5075 33.0655 25.4752 32.9085 25.4058 32.7692C25.2887 32.534 25.1017 32.3428 24.8719 32.2228C24.7357 32.152 24.5824 32.1187 24.3887 32.1024C24.196 32.0865 23.9547 32.0865 23.6408 32.0865H18.608ZM30.6266 17.4825C30.3127 17.4825 30.0713 17.4824 29.8787 17.4985C29.6849 17.5148 29.5316 17.5479 29.3954 17.6189C29.1656 17.7388 28.9785 17.9302 28.8613 18.1654C28.7919 18.3047 28.7598 18.4617 28.7439 18.6599C28.7282 18.857 28.7281 19.1038 28.7281 19.4249V27.2652C28.7281 27.5863 28.7282 27.8333 28.7439 28.0304C28.7598 28.2286 28.792 28.3854 28.8613 28.5247C28.9784 28.7598 29.1656 28.9513 29.3954 29.0712C29.5316 29.1422 29.6849 29.1753 29.8787 29.1915C30.0713 29.2076 30.3127 29.2075 30.6266 29.2075H38.2882C38.6021 29.2075 38.8436 29.2076 39.0362 29.1915C39.2299 29.1753 39.383 29.1422 39.5191 29.0712C39.749 28.9513 39.9362 28.7599 40.0535 28.5247C40.1226 28.3853 40.1552 28.2285 40.1711 28.0302C40.1867 27.8331 40.1867 27.5862 40.1867 27.2652V19.4249C40.1867 19.1038 40.1867 18.857 40.1711 18.6599C40.1552 18.4617 40.1226 18.3047 40.0535 18.1654C39.9362 17.9302 39.749 17.7387 39.5191 17.6189C39.383 17.548 39.2299 17.5148 39.0362 17.4985C38.8436 17.4824 38.6021 17.4825 38.2882 17.4825H30.6266ZM4.71156 17.867C4.39772 17.867 4.15636 17.8668 3.96372 17.883C3.77 17.8992 3.61687 17.9323 3.48071 18.0033C3.25086 18.1232 3.06376 18.3144 2.94657 18.5496C2.87721 18.6889 2.84484 18.8458 2.82899 19.0441C2.81324 19.2412 2.81335 19.4881 2.81335 19.8093V24.5748C2.81335 24.8959 2.81324 25.1429 2.82899 25.34C2.84484 25.5383 2.87724 25.6952 2.94657 25.8345C3.06372 26.0697 3.25086 26.2612 3.48071 26.3811C3.61683 26.452 3.77004 26.4849 3.96372 26.5012C4.15636 26.5173 4.39772 26.5174 4.71156 26.5174H9.36897C9.68281 26.5174 9.92414 26.5173 10.1168 26.5012C10.3105 26.4849 10.4637 26.452 10.5998 26.3811C10.8297 26.2612 11.0168 26.0697 11.134 25.8345C11.2033 25.6951 11.2357 25.5383 11.2515 25.34C11.2673 25.1429 11.2672 24.8959 11.2672 24.5748V19.8093C11.2672 19.4881 11.2673 19.2412 11.2515 19.0441C11.2357 18.8458 11.2033 18.6889 11.134 18.5496C11.0241 18.3292 10.8528 18.1473 10.6425 18.0267L10.5998 18.0033L10.548 17.9785C10.4249 17.9244 10.2863 17.8971 10.1168 17.883C9.92414 17.8668 9.68281 17.867 9.36897 17.867H4.71156ZM16.3544 2.87877C16.0406 2.87877 15.7992 2.87866 15.6065 2.89478C15.4129 2.911 15.2597 2.94416 15.1236 3.0151C14.8937 3.13501 14.7066 3.32646 14.5894 3.56165C14.5201 3.70098 14.4877 3.85768 14.4718 4.0559C14.4561 4.25302 14.4562 4.49999 14.4562 4.82113V12.6612C14.4562 12.9823 14.4561 13.2293 14.4718 13.4264C14.4877 13.6247 14.5201 13.7816 14.5894 13.9209C14.7066 14.1561 14.8937 14.3473 15.1236 14.4672C15.2597 14.5382 15.4129 14.5713 15.6065 14.5875C15.7992 14.6037 16.0406 14.6038 16.3544 14.6038H24.0163C24.3301 14.6038 24.5715 14.6037 24.7641 14.5875C24.9579 14.5713 25.1112 14.5384 25.2474 14.4674C25.4772 14.3475 25.6643 14.1561 25.7815 13.9209C25.8509 13.7815 25.883 13.6247 25.8989 13.4264C25.9146 13.2293 25.9147 12.9823 25.9147 12.6612V4.82113C25.9147 4.49999 25.9146 4.25302 25.8989 4.0559C25.883 3.85772 25.8508 3.70094 25.7815 3.56165C25.6643 3.32646 25.4772 3.13497 25.2474 3.0151C25.1112 2.94416 24.9578 2.911 24.7641 2.89478C24.5715 2.87866 24.3301 2.87877 24.0163 2.87877H16.3544Z" fill="#3C7EF9"/>
</svg>
