<svg width="269" height="51" viewBox="0 0 269 51" fill="none" xmlns="http://www.w3.org/2000/svg">
<path fill-rule="evenodd" clip-rule="evenodd" d="M41.2681 5.30859C42.3112 5.30859 42.812 5.30975 43.2145 5.44228C44.0349 5.71251 44.6785 6.3648 44.9452 7.19648C45.076 7.60458 45.077 8.1122 45.077 9.16943V30.897C45.077 31.9542 45.0757 32.4618 44.9452 32.8699C44.6785 33.7017 44.0349 34.354 43.2145 34.624C42.812 34.7566 42.3112 34.7579 41.2681 34.7579H31.5065V41.8313C31.5065 42.8887 31.5052 43.3963 31.3744 43.8043C31.1078 44.636 30.4643 45.2884 29.6439 45.5587C29.2413 45.691 28.7406 45.6923 27.6978 45.6923H9.04701C8.00405 45.6923 7.50328 45.6913 7.10069 45.5587C6.28024 45.2884 5.63675 44.636 5.37017 43.8043C5.23942 43.3963 5.23828 42.8887 5.23828 41.8313V22.9255C5.23828 21.8684 5.23942 21.3609 5.37017 20.9528C5.63675 20.1211 6.28024 19.4688 7.10069 19.1986C7.50328 19.066 8.00405 19.0647 9.04701 19.0647H16.0252V9.16943C16.0252 8.1122 16.0263 7.60458 16.157 7.19648C16.4236 6.3648 17.0671 5.71251 17.8876 5.44228C18.2902 5.30972 18.7909 5.30859 19.8339 5.30859H41.2681ZM22.4782 34.7579C22.1875 34.7579 21.9639 34.7579 21.7854 34.7726C21.6059 34.7875 21.4638 34.8181 21.3377 34.8831C21.1247 34.9932 20.9516 35.1687 20.843 35.3846C20.7787 35.5124 20.7487 35.6566 20.7341 35.8385C20.7195 36.0193 20.7196 36.2461 20.7196 36.5409V41.2672C20.7196 41.562 20.7195 41.7888 20.7341 41.9697C20.7487 42.1516 20.7788 42.2954 20.843 42.4232C20.9516 42.6391 21.1247 42.8149 21.3377 42.9251C21.4638 42.99 21.6059 43.0206 21.7854 43.0356C21.9639 43.0502 22.1875 43.0502 22.4782 43.0502H27.1411C27.4319 43.0502 27.6554 43.0502 27.834 43.0356C28.0135 43.0206 28.1555 42.99 28.2817 42.9251C28.4946 42.8149 28.6677 42.6391 28.7763 42.4232C28.8406 42.2954 28.8706 42.1516 28.8853 41.9697C28.8998 41.7888 28.8997 41.562 28.8997 41.2672V36.5409C28.8997 36.2461 28.8998 36.0193 28.8853 35.8385C28.8706 35.6566 28.8406 35.5124 28.7763 35.3846C28.6678 35.1687 28.4946 34.9932 28.2817 34.8831C28.1555 34.8181 28.0135 34.7875 27.834 34.7726C27.6554 34.7579 27.4319 34.7579 27.1411 34.7579H22.4782ZM33.6133 21.3543C33.3224 21.3543 33.0988 21.3542 32.9203 21.369C32.7408 21.3839 32.5988 21.4143 32.4726 21.4794C32.2597 21.5895 32.0863 21.7652 31.9778 21.981C31.9135 22.1089 31.8837 22.2529 31.869 22.4349C31.8544 22.6158 31.8543 22.8423 31.8543 23.137V30.3329C31.8543 30.6276 31.8544 30.8543 31.869 31.0353C31.8837 31.2171 31.9135 31.361 31.9778 31.4889C32.0863 31.7047 32.2597 31.8804 32.4726 31.9905C32.5988 32.0556 32.7408 32.0861 32.9203 32.1009C33.0988 32.1157 33.3224 32.1156 33.6133 32.1156H40.7116C41.0024 32.1156 41.2262 32.1157 41.4046 32.1009C41.584 32.0861 41.7259 32.0556 41.852 31.9905C42.065 31.8804 42.2384 31.7048 42.3471 31.4889C42.4112 31.361 42.4413 31.217 42.4561 31.035C42.4705 30.8541 42.4705 30.6276 42.4705 30.3329V23.137C42.4705 22.8423 42.4705 22.6158 42.4561 22.4349C42.4413 22.2529 42.4112 22.1089 42.3471 21.981C42.2384 21.7652 42.065 21.5894 41.852 21.4794C41.7259 21.4143 41.584 21.3839 41.4046 21.369C41.2262 21.3542 41.0024 21.3543 40.7116 21.3543H33.6133ZM9.60346 21.7071C9.31269 21.7071 9.08907 21.707 8.9106 21.7218C8.73112 21.7367 8.58924 21.7671 8.46309 21.8322C8.25014 21.9423 8.0768 22.1178 7.96823 22.3336C7.90396 22.4615 7.87398 22.6055 7.85929 22.7875C7.8447 22.9684 7.8448 23.195 7.8448 23.4898V27.8637C7.8448 28.1584 7.8447 28.385 7.85929 28.566C7.87398 28.7479 7.904 28.8919 7.96823 29.0198C8.07677 29.2357 8.25014 29.4114 8.46309 29.5215C8.58921 29.5866 8.73116 29.6168 8.9106 29.6317C9.08907 29.6465 9.31269 29.6466 9.60346 29.6466H13.9185C14.2092 29.6466 14.4328 29.6465 14.6113 29.6317C14.7908 29.6168 14.9327 29.5866 15.0588 29.5215C15.2718 29.4114 15.4451 29.2357 15.5537 29.0198C15.618 28.8919 15.6479 28.748 15.6626 28.566C15.6772 28.385 15.6771 28.1584 15.6771 27.8637V23.4898C15.6771 23.195 15.6772 22.9684 15.6626 22.7875C15.6479 22.6055 15.618 22.4615 15.5537 22.3336C15.4519 22.1313 15.2932 21.9644 15.0984 21.8537L15.0588 21.8322L15.0108 21.8094C14.8967 21.7598 14.7684 21.7348 14.6113 21.7218C14.4328 21.707 14.2092 21.7071 13.9185 21.7071H9.60346ZM20.3904 7.95077C20.0996 7.95077 19.876 7.95067 19.6975 7.96546C19.518 7.98035 19.3761 8.01078 19.25 8.07589C19.037 8.18595 18.8637 8.36166 18.7551 8.57752C18.6909 8.7054 18.6609 8.84922 18.6462 9.03115C18.6316 9.21207 18.6317 9.43874 18.6317 9.73349V16.9292C18.6317 17.2239 18.6316 17.4506 18.6462 17.6315C18.6608 17.8135 18.6909 17.9575 18.7551 18.0854C18.8637 18.3012 19.037 18.4767 19.25 18.5867C19.3761 18.6519 19.5181 18.6823 19.6975 18.6972C19.876 18.712 20.0996 18.7121 20.3904 18.7121H27.4889C27.7797 18.7121 28.0033 18.712 28.1818 18.6972C28.3613 18.6823 28.5033 18.6521 28.6295 18.587C28.8425 18.4769 29.0158 18.3013 29.1244 18.0854C29.1886 17.9574 29.2184 17.8135 29.2331 17.6315C29.2477 17.4506 29.2478 17.2239 29.2478 16.9292V9.73349C29.2478 9.43874 29.2477 9.21207 29.2331 9.03115C29.2184 8.84925 29.1886 8.70536 29.1244 8.57752C29.0158 8.36166 28.8425 8.18591 28.6295 8.07589C28.5034 8.01078 28.3613 7.98035 28.1818 7.96546C28.0033 7.95067 27.7797 7.95077 27.4889 7.95077H20.3904Z" fill="#3C7EF9"/>
<path d="M70.1148 9.65951C73.1157 9.60402 75.6078 10.2526 77.6075 11.9289L77.6096 11.9306C79.5536 13.5013 80.5863 15.3695 80.9707 18.0187C80.9875 18.1362 80.8969 18.2438 80.7755 18.2438H77.0659C76.9716 18.2438 76.8874 18.1758 76.8649 18.0781C76.6795 17.2834 76.4289 16.646 76.073 16.0953C75.7172 15.5447 75.2597 15.087 74.6683 14.646C73.4414 13.7058 71.8918 13.2582 70.0296 13.2926C68.1701 13.327 66.6681 13.7948 65.5364 14.7091C64.4312 15.5925 63.8916 16.7928 63.9164 18.2943C63.9365 19.512 64.3601 20.4998 65.1916 21.2441L65.194 21.2461C66.0187 21.949 67.3014 22.4717 69.0247 22.8249L73.7215 23.7821C76.3417 24.3218 78.3005 25.3031 79.6133 26.714L79.6157 26.7163C80.9573 28.0896 81.6513 29.904 81.6885 32.1725C81.7361 35.0621 80.8181 37.3727 78.9415 39.1197C77.0709 40.8258 74.4805 41.2759 71.1348 41.3378C67.6599 41.4021 64.8659 41.0002 62.7072 39.2611C60.632 37.5567 59.49 35.1162 59.1847 32.2768C59.1723 32.1619 59.2622 32.0597 59.381 32.0597H63.0903C63.1909 32.0597 63.2794 32.1368 63.2955 32.2433C63.5716 34.0475 64.3541 35.5541 65.6485 36.5462L65.6515 36.5482C67.0454 37.555 68.908 38.0296 71.225 37.9868C73.375 37.947 75.0272 37.4785 76.1619 36.5615L76.1639 36.5598C77.301 35.6041 77.8521 34.2815 77.8246 32.6102C77.8031 31.3063 77.3583 30.2294 76.4873 29.3908C75.6196 28.5558 74.3393 27.9659 72.6606 27.6108L72.6596 27.6105L67.9625 26.6529C65.3405 26.1129 63.3817 25.1746 62.0703 23.8492C60.7618 22.5267 60.0867 20.8076 60.0518 18.6798C60.0075 16.0013 60.9098 13.8294 62.7562 12.1514L62.7572 12.1504C64.6013 10.4398 67.0464 9.71629 70.1148 9.65951Z" fill="#3C7EF9"/>
<path fill-rule="evenodd" clip-rule="evenodd" d="M231.118 18.3262C233.374 18.3262 235.299 18.7847 236.9 19.6958L236.9 19.6961C238.525 20.6082 239.783 21.9036 240.676 23.5845C241.568 25.2646 242.017 27.2616 242.017 29.58C242.017 31.8735 241.569 33.8707 240.676 35.5755C239.783 37.2565 238.525 38.5519 236.9 39.4641C235.276 40.3756 233.35 40.8339 231.118 40.8339C228.885 40.8339 226.947 40.3753 225.299 39.4634C223.726 38.5559 222.485 37.3003 221.576 35.6945L221.489 35.5381C220.597 33.8579 220.148 31.8734 220.148 29.58C220.148 27.2621 220.598 25.2657 221.489 23.5859C222.405 21.9047 223.686 20.6091 225.335 19.6968C226.982 18.7846 228.909 18.3262 231.118 18.3262ZM231.118 22.8C229.209 22.8 227.708 23.3944 226.633 24.5969L226.632 24.5979C225.583 25.7981 225.067 27.4526 225.067 29.5435C225.067 31.6585 225.582 33.3368 226.631 34.5613L226.633 34.5633C227.708 35.7656 229.209 36.3602 231.118 36.3602C233.004 36.3602 234.483 35.7652 235.534 34.5623L235.535 34.5613C236.583 33.3371 237.099 31.6711 237.099 29.58C237.099 27.4653 236.583 25.7984 235.534 24.5979C234.483 23.3947 233.004 22.8 231.118 22.8Z" fill="#3C7EF9"/>
<path d="M114.006 18.8359C114.117 18.836 114.208 18.9272 114.208 19.0398V31.3568C114.208 33.3379 114.715 34.865 115.749 35.9139L115.751 35.9149C116.786 36.939 118.279 37.4405 120.209 37.4405C122.258 37.4405 123.858 36.9149 124.988 35.8445C126.142 34.7497 126.712 33.2355 126.712 31.3206V19.0398C126.712 18.9271 126.802 18.8359 126.913 18.8359H130.249C130.36 18.836 130.45 18.9272 130.45 19.0398V34.6797C130.45 34.9425 130.661 35.156 130.92 35.156H133.814C133.925 35.156 134.015 35.2472 134.015 35.3597V40.1197C134.015 40.2322 133.925 40.3237 133.814 40.3237H128.649C128.552 40.3237 128.471 40.254 128.452 40.1608L128.448 40.1197V37.4633C128.448 37.2005 128.238 36.9873 127.979 36.9869H127.047C126.887 36.9869 126.74 37.0706 126.652 37.2028C125.913 38.3157 124.94 39.1793 123.729 39.7933L123.488 39.9055C122.274 40.4492 120.847 40.7229 119.208 40.7229C116.552 40.7229 114.467 40.0041 112.936 38.5802L112.789 38.4401C111.294 36.9468 110.518 34.9616 110.471 32.4701L110.469 32.2274V19.0398C110.469 18.9271 110.559 18.8359 110.67 18.8359H114.006Z" fill="#3C7EF9"/>
<path fill-rule="evenodd" clip-rule="evenodd" d="M95.9113 18.1562C98.1935 18.1563 100.134 18.6148 101.739 19.5259L101.74 19.5266C103.37 20.4385 104.621 21.7334 105.495 23.4136L105.496 23.415C106.394 25.0949 106.845 27.0918 106.845 29.4101C106.845 31.7039 106.394 33.7013 105.496 35.4063L105.495 35.4066C104.621 37.0869 103.37 38.3819 101.74 39.2938C100.11 40.2054 98.169 40.664 95.9113 40.664C93.7016 40.664 91.7717 40.2057 90.1174 39.2935C88.4877 38.3571 87.2242 37.0491 86.3259 35.3689C85.4284 33.6886 84.9766 31.7039 84.9766 29.4101C84.9766 27.1164 85.4284 25.1317 86.3259 23.4515C87.2245 21.7705 88.488 20.4752 90.1181 19.5631L90.1188 19.5627C91.773 18.6266 93.7023 18.1562 95.9113 18.1562ZM95.9113 21.4616C93.6771 21.4616 91.9132 22.166 90.637 23.587C89.3621 24.9822 88.7332 26.9296 88.7332 29.4101C88.7332 31.8913 89.3624 33.8506 90.637 35.2699L90.638 35.2706C91.9142 36.6666 93.6778 37.3585 95.9113 37.3585C98.1676 37.3585 99.9326 36.6673 101.185 35.2699C102.46 33.8506 103.089 31.8913 103.089 29.4101C103.089 26.9835 102.498 25.0683 101.302 23.6822L101.184 23.5498C99.9316 22.1529 98.1673 21.4617 95.9113 21.4616Z" fill="#3C7EF9"/>
<path d="M161.951 18.8359C162.062 18.8361 162.153 18.9272 162.153 19.0398V30.8492C162.153 32.5637 162.588 33.8852 163.48 34.7895L163.481 34.7905C164.374 35.6701 165.689 36.0985 167.403 36.0985C169.213 36.0985 170.623 35.6334 171.609 34.6831C172.597 33.7326 173.083 32.3996 173.083 30.7041V19.0398C173.083 18.9272 173.172 18.836 173.283 18.8359H177.944C178.055 18.836 178.145 18.9272 178.145 19.0398V34.6069C178.145 34.8701 178.355 35.0833 178.615 35.0833H180.519C180.63 35.0833 180.72 35.1744 180.72 35.2869V40.1197C180.72 40.2322 180.63 40.3237 180.519 40.3237H175.824C175.713 40.3237 175.623 40.2326 175.623 40.1197V37.2093C175.623 36.9465 175.412 36.7336 175.153 36.7333H174.164C174.008 36.7333 173.863 36.8129 173.775 36.9407C172.969 38.1083 171.969 39.011 170.775 39.6502C169.559 40.2897 168.008 40.6137 166.115 40.6137C163.296 40.6137 161.116 39.8827 159.559 38.437L159.411 38.2949C157.867 36.7299 157.09 34.6158 157.09 31.9369V19.0398C157.09 18.9271 157.18 18.8359 157.291 18.8359H161.951Z" fill="#3C7EF9"/>
<path d="M151.894 9.99609C152.005 9.99616 152.095 10.0873 152.095 10.2V35.8906C152.095 37.3662 151.708 38.4488 150.957 39.1641C150.197 39.8635 149.109 40.3242 147.685 40.3242H138.51C138.399 40.3242 138.309 40.2327 138.309 40.1202L138.309 35.3602C138.309 35.2477 138.399 35.1562 138.51 35.1562H146.455C146.715 35.1562 146.925 34.943 146.925 34.6802V10.2C146.925 10.0873 147.016 9.99609 147.127 9.99609H151.894Z" fill="#3C7EF9"/>
<path d="M197.298 18.4961C200.229 18.4961 202.474 19.3045 204.052 20.9037L204.053 20.9043C205.657 22.5062 206.463 24.6408 206.463 27.3225V40.1199C206.463 40.2324 206.373 40.3239 206.262 40.3239H201.563C201.452 40.3239 201.361 40.2327 201.361 40.1199V28.3302C201.361 26.6022 200.898 25.2659 199.95 24.3448C199.027 23.4238 197.654 22.9752 195.856 22.9752C194.104 22.9752 192.734 23.425 191.764 24.3435L191.763 24.3448C190.815 25.2659 190.352 26.6022 190.352 28.3302V40.1199C190.352 40.2327 190.262 40.3239 190.15 40.3239H185.451C185.339 40.3239 185.25 40.2327 185.25 40.1199V24.459C185.25 24.1962 185.039 23.983 184.78 23.9829H182.784C182.672 23.9829 182.582 23.8917 182.582 23.779V19.204C182.582 19.0913 182.672 18.9998 182.784 18.9998H187.627C187.738 18.9998 187.829 19.0914 187.829 19.204V21.8712C187.829 22.134 188.039 22.3473 188.298 22.3473H189.299C189.455 22.3472 189.599 22.2682 189.688 22.1411C190.477 21.0065 191.472 20.1229 192.675 19.4886C193.924 18.8293 195.464 18.4961 197.298 18.4961Z" fill="#3C7EF9"/>
<path d="M215.987 18.8359C216.098 18.836 216.188 18.9272 216.188 19.0398V40.1197L216.184 40.1608C216.165 40.254 216.084 40.3237 215.987 40.3237H211.291C211.194 40.3237 211.113 40.254 211.094 40.1608L211.09 40.1197V19.0398C211.09 18.9272 211.18 18.8359 211.291 18.8359H215.987Z" fill="#3C7EF9"/>
<path d="M259.926 18.4981C260.038 18.4973 260.129 18.589 260.129 18.7023V22.6823C260.129 22.7952 260.038 22.8866 259.927 22.8862L258.202 22.8792C256.243 22.8792 254.746 23.4561 253.736 24.6304L253.735 24.6317C252.755 25.7985 252.271 27.3436 252.271 29.2529V40.1195C252.271 40.232 252.181 40.3235 252.07 40.3235H247.482C247.371 40.3235 247.281 40.232 247.281 40.1195V24.3345C247.281 24.0717 247.07 23.8585 246.811 23.8584H244.834C244.723 23.8584 244.633 23.7671 244.633 23.6545V19.0396C244.633 18.9269 244.723 18.8354 244.834 18.8354H249.601C249.713 18.8355 249.803 18.927 249.803 19.0396V22.4576C249.803 22.7204 250.013 22.9336 250.272 22.9337H251.216C251.406 22.9336 251.575 22.8172 251.651 22.6451C252.238 21.3208 253.108 20.3121 254.263 19.614C255.48 18.8784 256.875 18.509 258.452 18.509H258.453L259.926 18.4981Z" fill="#3C7EF9"/>
<path d="M215.987 11.6953C216.098 11.6954 216.188 11.7866 216.188 11.8992V16.3192C216.188 16.4318 216.098 16.523 215.987 16.523H211.291C211.194 16.523 211.113 16.4532 211.094 16.3604L211.09 16.3192V11.8992C211.09 11.7865 211.18 11.6953 211.291 11.6953H215.987Z" fill="#3C7EF9"/>
</svg>
